<?xml version="1.0" standalone="no"?><!DOCTYPE svg PUBLIC "-//W3C//DTD SVG 1.1//EN" "http://www.w3.org/Graphics/SVG/1.1/DTD/svg11.dtd"><svg class="icon" width="200px" height="200.00px" viewBox="0 0 1024 1024" version="1.1" xmlns="http://www.w3.org/2000/svg"><path d="M306.1248 439.68v226.2016c0 30.5664 19.712 57.6 48.7424 66.9952 54.5024 17.6128 108.7488 26.368 162.8672 26.368 52.4288 0 103.0912-8.192 152.1408-24.6784a70.4 70.4 0 0 0 47.872-62.0032l0.128-4.736v-228.1472h64v228.1472a134.4 134.4 0 0 1-91.648 127.4112 538.752 538.752 0 0 1-172.4928 28.032c-60.8768 0-121.7536-9.856-182.528-29.4912a134.4 134.4 0 0 1-92.9536-121.856l-0.128-6.0416v-226.2016h64z" fill="#FB553C" /><path d="M861.696 332.5952L547.328 185.1904a83.2 83.2 0 0 0-70.656 0L162.304 332.5952a57.6 57.6 0 0 0 0 104.2944l314.368 147.4048a83.2 83.2 0 0 0 70.656 0l314.368-147.4048a57.6 57.6 0 0 0 0-104.2944z m-39.4752 52.1216l-302.08 141.6192-2.6368 1.024a19.2 19.2 0 0 1-13.6448-1.024l-302.08-141.6192 302.08-141.568a19.2 19.2 0 0 1 16.2816 0l302.08 141.568z" fill="#FB553C" /><path d="M849.3312 396.8a25.6 25.6 0 0 1 25.4464 22.6048l0.1536 2.9952v179.2a25.6 25.6 0 0 1-51.0208 2.9952l-0.1792-2.9952v-179.2a25.6 25.6 0 0 1 25.6-25.6z" fill="#FB553C" /></svg>