<?xml version="1.0" standalone="no"?><!DOCTYPE svg PUBLIC "-//W3C//DTD SVG 1.1//EN" "http://www.w3.org/Graphics/SVG/1.1/DTD/svg11.dtd"><svg class="icon" width="200px" height="200.00px" viewBox="0 0 1024 1024" version="1.1" xmlns="http://www.w3.org/2000/svg"><path d="M566.176 590.496L904.96 239.68a32 32 0 0 0-46.048-44.48l-294.368 304.832-147.776-142.72-307.68 318.624a32 32 0 0 0 46.048 44.48l263.2-272.608 147.808 142.72z" fill="#FAAC08" /><path d="M864 128a96 96 0 0 1 96 96v448a96 96 0 0 1-96 96H544v35.712l157.632 98.496a32 32 0 0 1 11.968 40.8l-1.792 3.296a32 32 0 0 1-44.096 10.176l-155.968-97.44-161.28 97.664a32 32 0 1 1-33.152-54.72L480 803.424V768H160a96 96 0 0 1-96-96V224a96 96 0 0 1 96-96h704z m0 64H160a32 32 0 0 0-32 32v448a32 32 0 0 0 32 32h704a32 32 0 0 0 32-32V224a32 32 0 0 0-32-32z" fill="#1C1C1E" /></svg>